<svg xmlns="http://www.w3.org/2000/svg" data-name="Layer 1" viewBox="0 0 512 512"><path d="m403.032 343.277-56.544-26.534-36.128-22.814v-30.536a92.091 92.091 0 0 0 29.488-65.813 26.924 26.924 0 0 0 23.414-26.658 21.184 21.184 0 0 0-21.16-21.16h-2.23v-33.197l12.995-7.304a32.524 32.524 0 0 0 15.281-21.097 36.091 36.091 0 0 0-5.042-28.497l-23.832-35.116C328.841 9.178 312.364 0 295.198 0h-78.396c-17.166 0-33.643 9.178-44.076 24.551l-23.832 35.116a36.091 36.091 0 0 0-5.042 28.497 32.522 32.522 0 0 0 15.281 21.096l12.994 7.305v33.197h-2.23a21.184 21.184 0 0 0-21.16 21.16 26.924 26.924 0 0 0 23.415 26.658 92.095 92.095 0 0 0 29.488 65.813v30.59l-33.707 22.453-58.474 26.978a83.745 83.745 0 0 0-48.519 75.819V508.5a3.5 3.5 0 1 0 7 0v-89.267a76.724 76.724 0 0 1 44.452-69.463l52.481-24.213-9.729 48.797-21.198 1.313a9.862 9.862 0 0 0-6.604 16.582q.088.095.184.183l106.95 98.741-7.14 15.893a3.5 3.5 0 1 0 6.386 2.868l20.466-45.56.01-.022 49.108-109.324 14.316 24.42a3.5 3.5 0 0 0 3.02 1.73h46.579a6.593 6.593 0 0 1 4.356 11.546 3.487 3.487 0 0 0-.275.27L267.992 506.14a3.5 3.5 0 0 0 5.168 4.72l103.19-113.014a13.593 13.593 0 0 0-9.13-23.668h-17.432l-1.332-48.78 51.602 24.216a76.8 76.8 0 0 1 44.002 69.254V508.5a3.5 3.5 0 0 0 7 0v-89.632a83.827 83.827 0 0 0-48.028-75.591ZM172.127 190.503a19.922 19.922 0 0 1-16.39-19.581 14.176 14.176 0 0 1 14.16-14.16h2.23ZM332.873 168.5h-.503a6.508 6.508 0 0 1-6.5-6.5v-27.614a37.935 37.935 0 0 0 7.003-7.44Zm-153.746-15.243v-26.31a37.935 37.935 0 0 0 7.003 7.44V162a6.508 6.508 0 0 1-6.5 6.5h-.502v-15.238ZM256 82.087a21.828 21.828 0 0 0 20.117-13.41 234.654 234.654 0 0 1 47.493 9.104 12.901 12.901 0 0 1 9.26 12.409v8.51H179.13v-8.52a12.852 12.852 0 0 1 9.163-12.38 234.395 234.395 0 0 1 47.586-9.131A21.829 21.829 0 0 0 256 82.086Zm-14.796-21.79A14.796 14.796 0 1 1 256 75.086a14.81 14.81 0 0 1-14.796-14.79ZM179.142 105.7h153.716a30.667 30.667 0 0 1-30.629 30.062H209.77a30.667 30.667 0 0 1-30.628-30.062Zm162.96 51.062a14.176 14.176 0 0 1 14.16 14.16 19.924 19.924 0 0 1-16.39 19.581v-33.74ZM172.13 90.18v12l-.003.024v6.33l-9.564-5.376a25.52 25.52 0 0 1-11.897-16.598 29.074 29.074 0 0 1 4.02-22.962l23.832-35.116C187.783 14.83 201.738 7 216.802 7h78.396c15.065 0 29.019 7.83 38.284 21.482l23.832 35.116a29.074 29.074 0 0 1 4.02 22.962 25.521 25.521 0 0 1-11.897 16.599l-9.564 5.376V97.769c0-.009-.003-.017-.003-.025V90.19a19.859 19.859 0 0 0-14.239-19.11 241.666 241.666 0 0 0-47.892-9.285c.034-.496.057-.994.057-1.499a21.796 21.796 0 0 0-43.592 0c0 .501.023.997.056 1.49a241.482 241.482 0 0 0-47.995 9.315 19.812 19.812 0 0 0-14.135 19.08Zm6.997 105.781V175.5h.503a13.515 13.515 0 0 0 13.5-13.5v-23.126a37.414 37.414 0 0 0 16.64 3.888h92.46a37.414 37.414 0 0 0 16.64-3.888V162a13.515 13.515 0 0 0 13.5 13.5h.503v20.46a85.023 85.023 0 0 1-35.308 68.872 59.852 59.852 0 0 1-35.146 11.324H249.58a59.852 59.852 0 0 1-35.146-11.324 85.025 85.025 0 0 1-35.308-68.87Zm29.513 98.057V269.25c.565.427 1.131.852 1.708 1.267a66.816 66.816 0 0 0 39.233 12.64h12.838a66.816 66.816 0 0 0 39.233-12.64c.577-.415 1.143-.84 1.708-1.267v24.786l-46.966 32.788Zm42.311 37.558-26.46 26.344a5.907 5.907 0 0 1-9.669-2.028l-.007-.014-11.197-30.015a16.315 16.315 0 0 1-.42-10.242l3.984-14.112Zm-78.153-9.968 26.401-17.586-2.736 9.693a23.26 23.26 0 0 0 .598 14.598l6.596 17.681c-.028.043-.063.077-.089.122l-15.434 26.396-25.768 1.423ZM237.5 484.439l-105.114-97.048a2.862 2.862 0 0 1 1.99-4.738l23.89-1.48.018-.002 32.114-1.773a3.5 3.5 0 0 0 2.829-1.728l13.582-23.228 40.419 108.343Zm13.81-30.74-32.516-87.156a12.713 12.713 0 0 0 10.635-3.663l26.886-26.766 26.124 28.051a11.332 11.332 0 0 0 7.47 3.605Zm42.1-93.722a4.423 4.423 0 0 1-5.848-.582l-25.845-27.751 43.239-30.186 4.19 13.295a16.48 16.48 0 0 1-.687 11.72Zm29.237 14.201-15.82-26.986 8.018-17.85a23.475 23.475 0 0 0 .977-16.693l-2.75-8.729 28.283 17.86 1.43 52.398Zm-194.526 57.648a3.5 3.5 0 0 0-3.5 3.5V508.5a3.5 3.5 0 1 0 7 0v-73.174a3.5 3.5 0 0 0-3.5-3.5Zm255.758 0a3.5 3.5 0 0 0-3.5 3.5V508.5a3.5 3.5 0 0 0 7 0v-73.174a3.5 3.5 0 0 0-3.5-3.5ZM221.134 163.07a3.5 3.5 0 0 0-3.5 3.5v7.433a3.5 3.5 0 0 0 7 0v-7.433a3.5 3.5 0 0 0-3.5-3.5Zm-11.679-3.274a3.486 3.486 0 0 0 1.328-.263 27.154 27.154 0 0 1 9.66-2.037 27.528 27.528 0 0 1 11.044 2.038 3.5 3.5 0 0 0 2.655-6.477 34.205 34.205 0 0 0-26.017 0 3.5 3.5 0 0 0 1.33 6.74ZM256 220.18a16.221 16.221 0 0 0 16.205-16.201v-5.53a3.5 3.5 0 0 0-7 0v5.53a9.205 9.205 0 0 1-18.41 0v-5.53a3.5 3.5 0 0 0-7 0v5.53A16.221 16.221 0 0 0 256 220.179Zm-15.719 19.305a36.92 36.92 0 0 0 15.72 3.537h.11a36.937 36.937 0 0 0 15.608-3.537 3.5 3.5 0 0 0-2.998-6.325 29.697 29.697 0 0 1-25.442 0 3.5 3.5 0 0 0-2.998 6.325Zm50.585-76.415a3.5 3.5 0 0 0-3.5 3.5v7.433a3.5 3.5 0 0 0 7 0v-7.433a3.5 3.5 0 0 0-3.5-3.5Zm-10.351-3.537a27.16 27.16 0 0 1 9.661-2.037 27.5 27.5 0 0 1 11.043 2.038 3.5 3.5 0 1 0 2.655-6.477 34.205 34.205 0 0 0-26.018 0 3.5 3.5 0 1 0 2.659 6.476Z"/></svg>